<svg xmlns="http://www.w3.org/2000/svg" viewBox="0 0 600.44 140.2"><title>Recurso 3</title><g id="Capa_2" data-name="Capa 2"><g id="Layer_1" data-name="Layer 1"><path d="M155.22,132.9a3.66,3.66,0,0,1,3-3.54l5.21-.92a3.85,3.85,0,0,0,3-3.54v-76a3.66,3.66,0,0,0-3-3.54l-5.21-.92a3.85,3.85,0,0,1-3-3.55V38.12a3,3,0,0,1,3-3h16.63a3.46,3.46,0,0,1,3.4,3l.4,3.14c.2,1.62,1.3,2,2.4.81A30.27,30.27,0,0,1,188,36.5a26.14,26.14,0,0,1,12.22-2.74c9.11,0,16.22,3.65,21.33,11.05s7.61,17,7.61,29.09h0c0,.81-.2,2.84-.4,4.46,0,0-2.2,16.43-7.21,23.12s-12.12,9.93-21.13,9.93a30,30,0,0,1-12-2.33,22.66,22.66,0,0,1-8.81-6.89V124.9a3.65,3.65,0,0,0,3,3.54l5.2.92a3.85,3.85,0,0,1,3,3.54v2.74a3,3,0,0,1-3,3H158a3,3,0,0,1-3-3V132.9ZM215.8,75.32c0-.81-.1-2.84-.3-4.46,0,0-1.3-12.47-4.6-17.94s-8.11-8.11-14.62-8.11a18,18,0,0,0-9.82,2.63,20,20,0,0,0-6.61,7.2V88a10.41,10.41,0,0,0,1.81,5.48,18.48,18.48,0,0,0,4.8,4.66,18.15,18.15,0,0,0,10,2.54c6.41,0,11.21-2.33,14.52-7.1,3.1-4.66,4.8-10.75,4.8-18.25Zm22.54-64a3.85,3.85,0,0,1-3-3.54V5.07a3,3,0,0,1,3-3h18.52a3,3,0,0,1,3,3V96.21a3.66,3.66,0,0,0,3,3.54l5.21.92a3.85,3.85,0,0,1,3,3.55v2.63a3,3,0,0,1-3,3H238.34a3,3,0,0,1-3-3v-2.63a3.66,3.66,0,0,1,3-3.55l5.2-.92a3.86,3.86,0,0,0,3-3.54V15.81a3.66,3.66,0,0,0-3-3.54Zm92.22,98.54A3.77,3.77,0,0,1,327,107a23.17,23.17,0,0,1-.4-2.43c-.2-1.62-.4-3.24-.5-4.87a32.78,32.78,0,0,1-9.72,8.42,24.54,24.54,0,0,1-12.41,3.34c-7.71,0-13.52-1.92-17.53-5.67s-6-9.13-6-16c0-7.1,2.81-12.57,8.52-16.42s13.42-5.78,23.33-5.78h10.81a3,3,0,0,0,3-3V61.84a41.55,41.55,0,0,0-.5-6.08s-.8-4.87-3.61-7.4-6.51-3.86-11.41-3.86a26.75,26.75,0,0,0-8.92,1.32,16.71,16.71,0,0,0-6.2,3.55l-.91,4.87a3.84,3.84,0,0,1-3.5,3H286.6a3,3,0,0,1-3-3V45.82a6.07,6.07,0,0,1,2.5-4.66,49.25,49.25,0,0,1,9.72-4.87,48.39,48.39,0,0,1,15.52-2.43c8.41,0,15.12,2.13,20.33,6.49s7.81,10.54,7.81,18.55V97.73a25.06,25.06,0,0,0,.2,2.73l2.5.31a3.66,3.66,0,0,1,3,3.45v2.63a3,3,0,0,1-3,3Zm-24.63-10a24,24,0,0,0,12.22-3.25,19.72,19.72,0,0,0,7.91-7.8V79.58a3,3,0,0,0-3-3h-8.31c-1.7,0-4.3.2-6,.4,0,0-6.91.92-10.11,3.45a11.62,11.62,0,0,0-4.81,9.43c0,3.24,1,5.78,3,7.5S301.92,99.86,305.93,99.86Zm117.77-59a3.67,3.67,0,0,1-3,3.55l-.7.1a5.86,5.86,0,0,0-4,3.35l-26,70.76c-.6,1.52-1.6,4.06-2.41,5.58,0,0-3.2,6.69-6.7,10.44s-8.22,5.57-14.12,5.57a24.16,24.16,0,0,1-4.11-.4,36.52,36.52,0,0,1-3.91-.71l1-7.71c.2-1.62.6-3,.9-3l1.9.1c1.9.11,3.1.21,3.6.21a8.16,8.16,0,0,0,7-3.75,39.43,39.43,0,0,0,4.61-8.72l2-5a9.18,9.18,0,0,0,.1-5.68L357.6,47.75a6.08,6.08,0,0,0-4-3.35l-.8-.1a3.76,3.76,0,0,1-3-3.55V38a3,3,0,0,1,3-3.05h23.83a3,3,0,0,1,3,3.05v2.73a3.66,3.66,0,0,1-3,3.55l-2.4.41a2.54,2.54,0,0,0-2,3.34L383,79.18c.5,1.62,1.3,4.15,1.7,5.77l.9,3.65c.4,1.63.8,2.94,1,2.94s.6-1.31,1.21-2.84l13.41-40.65a2.47,2.47,0,0,0-2-3.34l-2.5-.41a3.77,3.77,0,0,1-3-3.55V38a3,3,0,0,1,3-3.05h23.93a3,3,0,0,1,3,3.05Zm9.91,4.26a3,3,0,0,1-3-3V38a3,3,0,0,1,3-3.05h5.51a3,3,0,0,0,3-3V28.59c0-1.73.2-4.36.4-6.08,0,0,1.6-11.16,5.71-15.52S458,.51,465.45.51a25.61,25.61,0,0,1,4.71.4A41.05,41.05,0,0,1,475.37,2l-1.2,7.4c-.3,1.62-1.31,2.84-2.31,2.63l-1.2-.1c-1.2-.1-2.4-.2-3.6-.2-4,0-6.91,1.22-8.82,3.55s-2.9,5.78-2.9,10.34V32a3,3,0,0,0,3,3h9.42a3,3,0,0,1,3,3v4.05a3,3,0,0,1-3,3h-9.42a3,3,0,0,0-3,3V96.21a3.66,3.66,0,0,0,3,3.54l5.21.92a3.86,3.86,0,0,1,3,3.55v2.63a3,3,0,0,1-3,3H433.81a3,3,0,0,1-3-3v-2.63a3.66,3.66,0,0,1,3-3.55l5.21-.92a3.85,3.85,0,0,0,3-3.54V48.15a3,3,0,0,0-3-3Zm102.94,56.67c-.1-1.62-1.1-1.92-2.1-.61,0,0-3.5,4.67-7.21,6.8a24.87,24.87,0,0,1-12.62,3.24c-8,0-14.22-2.64-18.72-7.81s-6.71-13.28-6.71-24.33V48.86a4,4,0,0,0-2.91-3.75l-2.6-.61a4,4,0,0,1-2.9-3.75V38a3,3,0,0,1,3-3.05H499.7a3,3,0,0,1,3,3.05V76.13c0,1.73.1,4.36.3,6.09,0,0,.9,10.44,3.2,13.38s5.91,4.46,10.82,4.46a21.94,21.94,0,0,0,11.81-2.94A18.58,18.58,0,0,0,536,88.81V48.86a3.8,3.8,0,0,0-2.9-3.65l-4-.81a3.78,3.78,0,0,1-2.9-3.65V38a3,3,0,0,1,3-3.05h17.33a3,3,0,0,1,3,3.05V96.21a4,4,0,0,0,2.91,3.75l2.6.61a4,4,0,0,1,2.9,3.75V107a3,3,0,0,1-3,3H540.36a3.2,3.2,0,0,1-3.2-3ZM567.7,11.35a3.86,3.86,0,0,1-3-3.54V5.07a3,3,0,0,1,3-3h18.52a3,3,0,0,1,3,3V96.21a3.66,3.66,0,0,0,3,3.54l5.21.92a3.85,3.85,0,0,1,3,3.55v2.63a3,3,0,0,1-3,3H567.7a3,3,0,0,1-3-3v-2.63a3.67,3.67,0,0,1,3-3.55l5.21-.92a3.85,3.85,0,0,0,3-3.54V15.81a3.66,3.66,0,0,0-3-3.54ZM115.36,20Q95.53.05,67.49,0C48.77,0,32.75,6.69,19.63,20S0,49.37,0,68.43s6.61,35.18,19.73,48.46,29,20,47.87,20,34.74-6.69,47.86-20,19.73-29.5,19.73-48.46S128.48,33.35,115.36,20ZM91.73,91.54a26.55,26.55,0,0,1-8.81,13.89A23.28,23.28,0,0,1,67.6,111a23.82,23.82,0,0,1-15.33-5.58,26.64,26.64,0,0,1-9-14.09,7.68,7.68,0,0,1-.3-2c0-2.84,1.8-4,5.31-4H87.42C91.43,85.26,92.83,87.18,91.73,91.54Z"/></g></g></svg>