<?xml version="1.0" encoding="utf-8"?>
<!-- Generator: Adobe Illustrator 17.0.0, SVG Export Plug-In . SVG Version: 6.00 Build 0)  -->
<!DOCTYPE svg PUBLIC "-//W3C//DTD SVG 1.1//EN" "http://www.w3.org/Graphics/SVG/1.1/DTD/svg11.dtd">
<svg version="1.1" id="Layer_1" xmlns="http://www.w3.org/2000/svg" xmlns:xlink="http://www.w3.org/1999/xlink" x="0px" y="0px"
	 width="601.2px" height="140.2px" viewBox="0 0 601.2 140.2" enable-background="new 0 0 601.2 140.2" xml:space="preserve">
<path fill="#F2F2F2" d="M155.9,132.2c0-1.7,1.3-3.2,3-3.5l5.2-0.9c1.6-0.3,3-1.9,3-3.5v-75c0-1.7-1.3-3.2-3-3.5l-5.2-0.9
	c-1.6-0.3-3-1.9-3-3.5v-2.7c0-1.7,1.3-3,3-3h16.6c1.7,0,3.2,1.3,3.4,3l0.4,3.1c0.2,1.6,1.3,2,2.4,0.8c0,0,3.4-3.7,6.9-5.5
	s7.6-2.7,12.2-2.7c9.1,0,16.2,3.6,21.3,10.9c5.1,7.2,7.6,16.8,7.6,28.7l0,0c0,0.8-0.2,2.8-0.4,4.4c0,0-2.2,16.2-7.2,22.8
	C217,107.7,210,111,201,111c-4.5,0-8.5-0.8-12-2.3s-6.4-3.8-8.8-6.8v22.4c0,1.7,1.3,3.2,3,3.5l5.2,0.9c1.6,0.3,3,1.9,3,3.5v2.7
	c0,1.7-1.3,3-3,3h-29.7c-1.7,0-3-1.3-3-3v-2.7H155.9z M216.4,75.4c0-0.8-0.1-2.8-0.3-4.4c0,0-1.3-12.3-4.6-17.7s-8.1-8-14.6-8
	c-3.8,0-7.1,0.9-9.8,2.6s-4.9,4.1-6.6,7.1v32.9c0,1.7,0.8,4.1,1.8,5.4c0,0,2.1,3,4.8,4.6c2.7,1.7,6,2.5,10,2.5
	c6.4,0,11.2-2.3,14.5-7C214.7,88.8,216.4,82.8,216.4,75.4L216.4,75.4z M238.9,12.3c-1.6-0.3-3-1.9-3-3.5V6.1c0-1.7,1.3-3,3-3h18.5
	c1.7,0,3,1.3,3,3V96c0,1.7,1.3,3.2,3,3.5l5.2,0.9c1.6,0.3,3,1.9,3,3.5v2.6c0,1.7-1.3,3-3,3h-29.7c-1.7,0-3-1.3-3-3v-2.6
	c0-1.7,1.3-3.2,3-3.5l5.2-0.9c1.6-0.3,3-1.9,3-3.5V16.7c0-1.7-1.3-3.2-3-3.5L238.9,12.3z M331,109.5c-1.7,0-3.3-1.3-3.6-2.9
	c0,0-0.2-0.8-0.4-2.4c-0.2-1.6-0.4-3.2-0.5-4.8c-2.6,3.3-5.8,6.1-9.7,8.3c-3.9,2.2-8,3.3-12.4,3.3c-7.7,0-13.5-1.9-17.5-5.6
	c-4-3.8-6-9-6-15.8c0-7,2.8-12.4,8.5-16.2s13.4-5.7,23.3-5.7h10.8c1.7,0,3-1.3,3-3v-2.6c0-1.7-0.2-4.3-0.5-6c0,0-0.8-4.8-3.6-7.3
	S315.9,45,311,45c-3.4,0-6.3,0.4-8.9,1.3c-2.6,0.9-4.6,2-6.2,3.5l-0.9,4.8c-0.3,1.6-1.9,3-3.5,3h-4.4c-1.7,0-3-1.3-3-3v-8.3
	c0-1.7,1.1-3.7,2.5-4.6c0,0,4.9-3.2,9.7-4.8s10-2.4,15.5-2.4c8.4,0,15.1,2.1,20.3,6.4c5.2,4.3,7.8,10.4,7.8,18.3v32.5
	c0,1.7,0,3.8,0,4.9c0,0,0,0,0,0.9s0.1,1.8,0.2,2.7l2.5,0.3c1.6,0.2,3,1.8,3,3.4v2.6c0,1.7-1.3,3-3,3H331z M306.4,99.6
	c4.5,0,8.5-1.1,12.2-3.2s6.3-4.7,7.9-7.7v-9.1c0-1.7-1.3-3-3-3h-8.3c-1.7,0-4.3,0.2-6,0.4c0,0-6.9,0.9-10.1,3.4s-4.8,5.6-4.8,9.3
	c0,3.2,1,5.7,3,7.4C299.3,98.8,302.4,99.6,306.4,99.6z M424,41.4c0,1.7-1.3,3.2-3,3.5l-0.7,0.1c-1.6,0.3-3.4,1.7-4,3.3l-26,69.8
	c-0.6,1.5-1.6,4-2.4,5.5c0,0-3.2,6.6-6.7,10.3s-8.2,5.5-14.1,5.5c-1,0-2.4-0.1-4.1-0.4c-1.7-0.2-3-0.5-3.9-0.7l1-7.6
	c0.2-1.6,0.6-3,0.9-3c0,0,0,0,1.9,0.1s3.1,0.2,3.6,0.2c2.9,0,5.2-1.2,7-3.7s3.3-5.3,4.6-8.6l2-4.9c0.6-1.5,0.7-4,0.1-5.6l-22.2-57
	c-0.6-1.5-2.4-3-4-3.3l-0.8-0.1c-1.6-0.3-3-1.8-3-3.5v-2.7c0-1.7,1.3-3,3-3H377c1.7,0,3,1.3,3,3v2.7c0,1.7-1.3,3.2-3,3.5l-2.4,0.4
	c-1.6,0.3-2.5,1.8-2,3.3l10.8,30.7c0.5,1.6,1.3,4.1,1.7,5.7l0.9,3.6c0.4,1.6,0.8,2.9,1,2.9s0.6-1.3,1.2-2.8l13.4-40.1
	c0.5-1.6-0.4-3.1-2-3.3l-2.5-0.4c-1.6-0.3-3-1.8-3-3.5v-2.7c0-1.7,1.3-3,3-3H421c1.7,0,3,1.3,3,3V41.4z M433.9,45.6
	c-1.7,0-3-1.3-3-3v-4c0-1.7,1.3-3,3-3h5.5c1.7,0,3-1.3,3-3v-3.3c0-1.7,0.2-4.3,0.4-6c0,0,1.6-11,5.7-15.3s9.8-6.4,17.2-6.4
	c1.5,0,3.1,0.1,4.7,0.4c1.6,0.2,3.3,0.6,5.2,1.1l-1.2,7.3c-0.3,1.6-1.3,2.8-2.3,2.6c0,0,0,0-1.2-0.1s-2.4-0.2-3.6-0.2
	c-4,0-6.9,1.2-8.8,3.5s-2.9,5.7-2.9,10.2v6.3c0,1.7,1.3,3,3,3h9.4c1.7,0,3,1.3,3,3v4c0,1.7-1.3,3-3,3h-9.4c-1.7,0-3,1.3-3,3V96
	c0,1.7,1.3,3.2,3,3.5l5.2,0.9c1.6,0.3,3,1.9,3,3.5v2.6c0,1.7-1.3,3-3,3h-29.7c-1.7,0-3-1.3-3-3v-2.6c0-1.7,1.3-3.2,3-3.5l5.2-0.9
	c1.6-0.3,3-1.9,3-3.5V48.6c0-1.7-1.3-3-3-3H433.9z M536.7,101.5c-0.1-1.6-1.1-1.9-2.1-0.6c0,0-3.5,4.6-7.2,6.7s-7.9,3.2-12.6,3.2
	c-8,0-14.2-2.6-18.7-7.7s-6.7-13.1-6.7-24V49.3c0-1.7-1.3-3.3-2.9-3.7l-2.6-0.6c-1.6-0.4-2.9-2-2.9-3.7v-2.7c0-1.7,1.3-3,3-3h2.5
	c1.7,0,4.3,0,6,0h7.4c1.7,0,3,1.3,3,3v37.6c0,1.7,0.1,4.3,0.3,6c0,0,0.9,10.3,3.2,13.2c2.3,3,5.9,4.4,10.8,4.4c4.8,0,8.7-1,11.8-2.9
	s5.5-4.7,7.1-8.2V49.3c0-1.7-1.3-3.3-2.9-3.6l-4-0.8c-1.6-0.3-2.9-1.9-2.9-3.6v-2.7c0-1.7,1.3-3,3-3h3.9c1.7,0,4.3,0,6,0h7.4
	c1.7,0,3,1.3,3,3V96c0,1.7,1.3,3.3,2.9,3.7l2.6,0.6c1.6,0.4,2.9,2,2.9,3.7v2.6c0,1.7-1.3,3-3,3h-14.5c-1.7,0-3.1-1.3-3.2-3
	L536.7,101.5z M567.8,12.3c-1.6-0.3-3-1.9-3-3.5V6.1c0-1.7,1.3-3,3-3h18.5c1.7,0,3,1.3,3,3V96c0,1.7,1.3,3.2,3,3.5l5.2,0.9
	c1.6,0.3,3,1.9,3,3.5v2.6c0,1.7-1.3,3-3,3h-29.7c-1.7,0-3-1.3-3-3v-2.6c0-1.7,1.3-3.2,3-3.5l5.2-0.9c1.6-0.3,3-1.9,3-3.5V16.7
	c0-1.7-1.3-3.2-3-3.5L567.8,12.3z M116.1,20.8C102.9,7.7,87,1.1,68.3,1.1S33.6,7.7,20.5,20.8S0.9,49.8,0.9,68.6s6.6,34.7,19.7,47.8
	c13.1,13.1,29,19.7,47.8,19.7c18.7,0,34.7-6.6,47.8-19.7c13.1-13.1,19.7-29.1,19.7-47.8C135.8,49.9,129.2,34,116.1,20.8z M92.5,91.4
	c-1.5,5.6-4.4,10-8.8,13.7c-4.5,3.7-9.6,5.5-15.3,5.5s-10.8-1.9-15.3-5.5s-7.4-8.2-9-13.9c-0.2-0.8-0.3-1.3-0.3-2c0-2.8,1.8-4,5.3-4
	h39.1C92.2,85.2,93.6,87.1,92.5,91.4z"/>
</svg>
